# xmcd CD database file
#
# Track frame offsets:
#	150
#	19799
#	33611
#	48588
#	73099
#	89756
#	107812
#	133046
#	152295
#	173901
#	192315
#	203794
#	224509
#	238328
#	252924
#
# Disc length: 3630 seconds
#
# Revision: 0
# Processed by: cddbd v1.5.1PL0 Copyright (c) Steve Scherf et al.
# Submitted via: CDex 1.60beta1
#
DISCID=e10e2c0f
DTITLE=Paul "Lil' Buck" Sinegal - Buck Starts Here
DYEAR=1999
DGENRE=Blues
TTITLE0=Run Down Cadillac
TTITLE1=Winding Roads and Pine Trees
TTITLE2=If You Want Me to Leave
TTITLE3=Line Dancer
TTITLE4=Don't Tell Me About Down
TTITLE5=Sleepwalk
TTITLE6=Standing in the Rain
TTITLE7=Buckin' for Your Love
TTITLE8=Show Me Good
TTITLE9=Every Man Needs a Home
TTITLE10=Blues into Zydeco
TTITLE11=You Gotta Do Everything I Say
TTITLE12=This Road
TTITLE13=Double X
TTITLE14=Buck's Time Out
EXTD=YEAR: 1999
EXTT0=
EXTT1=
EXTT2=
EXTT3=
EXTT4=
EXTT5=
EXTT6=
EXTT7=
EXTT8=
EXTT9=
EXTT10=
EXTT11=
EXTT12=
EXTT13=
EXTT14=
PLAYORDER=
